<svg width="25" height="25" viewBox="0 0 15 15" fill="none" xmlns="http://www.w3.org/2000/svg">
<path d="M10.4464 8.57143C11.2279 8.57143 11.9773 8.88185 12.5299 9.43442C13.0824 9.98698 13.3929 10.7364 13.3929 11.5179C13.3929 12.2993 13.0824 13.0487 12.5299 13.6013C11.9773 14.1539 11.2279 14.4643 10.4464 14.4643C9.66498 14.4643 8.91555 14.1539 8.36298 13.6013C7.81042 13.0487 7.5 12.2993 7.5 11.5179C7.5 10.7364 7.81042 9.98698 8.36298 9.43442C8.91555 8.88185 9.66498 8.57143 10.4464 8.57143ZM7.5 1.20536C8.01428 1.20531 8.509 1.4025 8.88224 1.75631C9.25548 2.11011 9.47882 2.59359 9.50625 3.10714L9.50892 3.21429H12.4554C12.5572 3.21432 12.6551 3.25299 12.7295 3.32248C12.8039 3.39198 12.8491 3.48712 12.8561 3.58869C12.863 3.69025 12.8311 3.79066 12.7669 3.86962C12.7027 3.94859 12.6108 4.00023 12.51 4.01411L12.4554 4.01786H11.888L11.5484 8.21357C11.2914 8.12796 11.0253 8.07276 10.7555 8.04911L11.0823 4.01786H3.91767L4.56642 12.0171C4.59092 12.319 4.72814 12.6006 4.95079 12.8058C5.17343 13.0111 5.46519 13.125 5.76803 13.125L7.35696 13.1255C7.51016 13.4194 7.70443 13.69 7.93392 13.9291L5.76803 13.9286C5.26331 13.9286 4.77706 13.7387 4.40601 13.3965C4.03497 13.0543 3.80631 12.585 3.76553 12.082L3.11142 4.01786H2.54464C2.44755 4.01785 2.35374 3.98269 2.28057 3.91887C2.2074 3.85506 2.15981 3.7669 2.1466 3.67071L2.14285 3.61607C2.14286 3.51898 2.17802 3.42517 2.24184 3.352C2.30565 3.27883 2.39381 3.23124 2.49 3.21803L2.54464 3.21429H5.49107C5.49107 2.68148 5.70272 2.17051 6.07947 1.79376C6.45622 1.41701 6.96719 1.20536 7.5 1.20536ZM9.12 10.1914C9.06978 10.2417 9.04157 10.3098 9.04157 10.3808C9.04157 10.4518 9.06978 10.5199 9.12 10.5702L10.0677 11.5184L9.12107 12.4645C9.07077 12.5147 9.04249 12.5828 9.04244 12.6539C9.04239 12.725 9.07057 12.7932 9.1208 12.8435C9.17102 12.8938 9.23917 12.9221 9.31025 12.9221C9.38133 12.9222 9.44952 12.894 9.49982 12.8437L10.4464 11.8971L11.3946 12.8448C11.4193 12.8704 11.4489 12.8908 11.4816 12.9048C11.5143 12.9189 11.5494 12.9263 11.585 12.9266C11.6205 12.9269 11.6558 12.9201 11.6887 12.9066C11.7217 12.8932 11.7516 12.8733 11.7767 12.8481C11.8019 12.823 11.8217 12.7931 11.8352 12.7602C11.8487 12.7272 11.8555 12.692 11.8552 12.6564C11.8548 12.6208 11.8475 12.5857 11.8334 12.553C11.8194 12.5203 11.799 12.4908 11.7734 12.4661L10.8257 11.5179L11.7745 10.5696C11.8233 10.5191 11.8503 10.4515 11.8496 10.3812C11.849 10.311 11.8209 10.2438 11.7712 10.1942C11.7215 10.1445 11.6544 10.1163 11.5841 10.1157C11.5139 10.1151 11.4462 10.1421 11.3957 10.1909L10.447 11.1391L9.49875 10.1909C9.44852 10.1407 9.3804 10.1125 9.30937 10.1125C9.23834 10.1125 9.17023 10.1407 9.12 10.1909V10.1914ZM7.5 2.00893C7.19457 2.00889 6.90052 2.1248 6.67727 2.33323C6.45402 2.54167 6.31822 2.82708 6.29732 3.13179L6.29464 3.21429H8.70535L8.70267 3.13179C8.68177 2.82708 8.54597 2.54167 8.32272 2.33323C8.09947 2.1248 7.80542 2.00889 7.5 2.00893Z" fill="black"/>
</svg>
