<svg width="25" height="25" viewBox="0 0 15 15" fill="none" xmlns="http://www.w3.org/2000/svg">
<path d="M11.6667 12.5H2.50002V3.33333H8.00835L8.84169 2.5H2.50002C2.27901 2.5 2.06704 2.5878 1.91076 2.74408C1.75448 2.90036 1.66669 3.11232 1.66669 3.33333V12.5C1.66669 12.721 1.75448 12.933 1.91076 13.0893C2.06704 13.2455 2.27901 13.3333 2.50002 13.3333H11.6667C11.8877 13.3333 12.0997 13.2455 12.2559 13.0893C12.4122 12.933 12.5 12.721 12.5 12.5V6.25L11.6667 7.08333V12.5Z" fill="black"/>
<path d="M13.9708 2.43333L12.5667 1.02917C12.5044 0.966678 12.4303 0.917101 12.3488 0.883273C12.2673 0.849446 12.1799 0.832033 12.0917 0.832033C12.0034 0.832033 11.916 0.849446 11.8345 0.883273C11.753 0.917101 11.679 0.966678 11.6167 1.02917L5.90417 6.775L5.44167 8.77917C5.42197 8.87632 5.42404 8.97662 5.44773 9.07288C5.47143 9.16913 5.51617 9.25894 5.57872 9.33583C5.64128 9.41273 5.72009 9.47481 5.80951 9.51761C5.89892 9.5604 5.99671 9.58285 6.09584 9.58333C6.14707 9.58897 6.19877 9.58897 6.25 9.58333L8.27084 9.1375L13.9708 3.38333C14.0333 3.32102 14.0829 3.24698 14.1167 3.16547C14.1506 3.08396 14.168 2.99658 14.168 2.90833C14.168 2.82008 14.1506 2.7327 14.1167 2.65119C14.0829 2.56968 14.0333 2.49565 13.9708 2.43333ZM7.8375 8.36667L6.3125 8.70417L6.66667 7.19167L10.9667 2.8625L12.1417 4.0375L7.8375 8.36667ZM12.6125 3.56667L11.4375 2.39167L12.0833 1.73333L13.2667 2.91667L12.6125 3.56667Z" fill="black"/>
</svg>
