<svg width="25" height="25" viewBox="0 0 25 25" fill="none" xmlns="http://www.w3.org/2000/svg">
<path d="M12.5 10.9375C12.7072 10.9375 12.9059 11.0198 13.0524 11.1663C13.1989 11.3128 13.2812 11.5115 13.2812 11.7188V14.0625H15.625C15.8322 14.0625 16.0309 14.1448 16.1774 14.2913C16.3239 14.4378 16.4062 14.6365 16.4062 14.8438C16.4062 15.051 16.3239 15.2497 16.1774 15.3962C16.0309 15.5427 15.8322 15.625 15.625 15.625H13.2812V17.9688C13.2812 18.176 13.1989 18.3747 13.0524 18.5212C12.9059 18.6677 12.7072 18.75 12.5 18.75C12.2928 18.75 12.0941 18.6677 11.9476 18.5212C11.8011 18.3747 11.7188 18.176 11.7188 17.9688V15.625H9.375C9.1678 15.625 8.96909 15.5427 8.82257 15.3962C8.67606 15.2497 8.59375 15.051 8.59375 14.8438C8.59375 14.6365 8.67606 14.4378 8.82257 14.2913C8.96909 14.1448 9.1678 14.0625 9.375 14.0625H11.7188V11.7188C11.7188 11.5115 11.8011 11.3128 11.9476 11.1663C12.0941 11.0198 12.2928 10.9375 12.5 10.9375Z" fill="#0D0D0D"/>
<path d="M5.46875 0C5.67595 0 5.87466 0.08231 6.02118 0.228823C6.16769 0.375336 6.25 0.57405 6.25 0.78125V1.5625H18.75V0.78125C18.75 0.57405 18.8323 0.375336 18.9788 0.228823C19.1253 0.08231 19.324 0 19.5312 0C19.7385 0 19.9372 0.08231 20.0837 0.228823C20.2302 0.375336 20.3125 0.57405 20.3125 0.78125V1.5625H21.875C22.7038 1.5625 23.4987 1.89174 24.0847 2.47779C24.6708 3.06384 25 3.8587 25 4.6875V21.875C25 22.7038 24.6708 23.4987 24.0847 24.0847C23.4987 24.6708 22.7038 25 21.875 25H3.125C2.2962 25 1.50134 24.6708 0.915291 24.0847C0.32924 23.4987 0 22.7038 0 21.875V4.6875C0 3.8587 0.32924 3.06384 0.915291 2.47779C1.50134 1.89174 2.2962 1.5625 3.125 1.5625H4.6875V0.78125C4.6875 0.57405 4.76981 0.375336 4.91632 0.228823C5.06284 0.08231 5.26155 0 5.46875 0V0ZM1.5625 6.25V21.875C1.5625 22.2894 1.72712 22.6868 2.02015 22.9799C2.31317 23.2729 2.7106 23.4375 3.125 23.4375H21.875C22.2894 23.4375 22.6868 23.2729 22.9799 22.9799C23.2729 22.6868 23.4375 22.2894 23.4375 21.875V6.25H1.5625Z" fill="#0D0D0D"/>
</svg>
